<svg width="48" height="40" viewBox="0 0 48 40" fill="none" xmlns="http://www.w3.org/2000/svg">
<path d="M17.8008 31.168C17.8008 33.0898 18.8789 35 20.4844 35.7266L19.8047 36.6172C18.6094 36.0195 17.7129 34.8301 17.25 33.3945C16.7871 34.9062 15.8672 36.1836 14.6602 36.8164L13.957 35.9141C15.5859 35.1406 16.6758 33.1133 16.6758 31.168V29.375H17.8008V31.168ZM22.7695 28.4961V39.0195H21.668V32.8906H19.3242V31.9883H21.668V28.4961H22.7695ZM33.457 28.4961V38.9961H32.3906V33.6055H31.1367V38.4805H30.082V28.6953H31.1367V32.668H32.3906V28.4961H33.457ZM27.5742 31.2734C27.5742 33.1602 28.2891 34.8711 29.8125 35.6562L29.1562 36.5117C28.125 35.9551 27.4336 34.9766 27.0586 33.7578C26.7012 35.1406 26.0039 36.2422 24.9375 36.875L24.2461 36.0312C25.7812 35.1641 26.4961 33.3594 26.4961 31.2734V30.5938H24.5273V29.6914H29.4023V30.5938H27.5742V31.2734Z" fill="#ABABAB"/>
<path fill-rule="evenodd" clip-rule="evenodd" d="M15 5C15 2.79086 16.7909 1 19 1H31C32.1046 1 33 1.89543 33 3V16.1098C33 16.6994 32.9049 17.2852 32.7185 17.8445L32.5366 18.3902C32.193 19.4209 32.273 20.546 32.7589 21.5178C33.0994 22.1988 32.6042 23 31.8428 23H19C16.7909 23 15 21.2091 15 19V5ZM22 5C22 4.44772 22.4477 4 23 4H28C28.5523 4 29 4.44772 29 5C29 5.55228 28.5523 6 28 6H23C22.4477 6 22 5.55228 22 5ZM21 16.2002C18.9013 16.2002 17.2002 17.9013 17.2002 20C17.2002 20.4418 17.5582 20.7998 18 20.7998C18.4418 20.7998 18.7998 20.4418 18.7998 20C18.7998 18.785 19.785 17.7998 21 17.7998H31C31.4418 17.7998 31.7998 17.4418 31.7998 17C31.7998 16.5582 31.4418 16.2002 31 16.2002H21Z" fill="#ABABAB"/>
</svg>
