<svg width="49" height="40" viewBox="0 0 49 40" fill="none" xmlns="http://www.w3.org/2000/svg">
<path d="M21.1914 29.1523C21.1914 31.8242 19.3633 33.7227 16.3164 34.5781L15.8594 33.7109C18.2793 33.0312 19.7852 31.7188 20.0078 30.0664H16.4102V29.1523H21.1914ZM24.5195 28.5078V34.4492H23.4062V32.0586H21.2383V31.1328H23.4062V28.5078H24.5195ZM24.5195 34.8828V38.8555H17.6523V34.8828H24.5195ZM18.7422 35.7734V37.9648H23.418V35.7734H18.7422ZM29.3477 30.4766C29.3477 31.6602 30.0742 32.8438 31.4336 33.3711L30.8359 34.2266C29.875 33.8398 29.1953 33.1133 28.8203 32.2344C28.4277 33.2129 27.7129 34.0566 26.6992 34.4961L26.0898 33.6406C27.5078 33.0195 28.2695 31.6602 28.2695 30.4766V29.1289H29.3477V30.4766ZM35.0898 28.5078V34.8477H34.0352V32.1055H32.8047V34.7891H31.7734V28.6836H32.8047V31.1797H34.0352V28.5078H35.0898ZM35.0898 35.3984V38.9961H33.9883V36.3008H27.9531V35.3984H35.0898Z" fill="#ABABAB"/>
<circle cx="23" cy="10.75" r="7.25" stroke="#ABABAB" stroke-width="3"/>
<path d="M32.8138 23.392C33.5919 24.176 34.8657 24.1884 35.6589 23.4197C36.4521 22.6509 36.4643 21.3922 35.6862 20.6083L34.25 22.0001L32.8138 23.392ZM28.1304 15.8345L26.6942 17.2264L32.8138 23.392L34.25 22.0001L35.6862 20.6083L29.5666 14.4426L28.1304 15.8345Z" fill="#ABABAB"/>
</svg>
