<svg width="48" height="40" viewBox="0 0 48 40" fill="none" xmlns="http://www.w3.org/2000/svg">
<path d="M18.4453 29.6797V32.4102H19.8516V28.6953H20.918V38.4805H19.8516V33.3242H18.4453V36.2305H14.3672V29.6797H18.4453ZM15.4219 30.5586V35.3398H17.4023V30.5586H15.4219ZM23.0508 28.4961V38.9961H21.9844V28.4961H23.0508ZM33.0938 28.5078V36.1367H31.9805V28.5078H33.0938ZM33.4102 37.8711V38.7734H26.2266V35.3633H27.3516V37.8711H33.4102ZM27.3984 29.2109C28.9805 29.2109 30.1875 30.2891 30.1875 31.8125C30.1875 33.3594 28.9805 34.4258 27.3984 34.4258C25.8164 34.4258 24.5977 33.3594 24.5977 31.8125C24.5977 30.2891 25.8164 29.2109 27.3984 29.2109ZM27.3984 30.1836C26.4141 30.1836 25.6875 30.8516 25.6875 31.8125C25.6875 32.7969 26.4141 33.4531 27.3984 33.4531C28.3594 33.4531 29.0977 32.7969 29.0977 31.8125C29.0977 30.8516 28.3594 30.1836 27.3984 30.1836Z" fill="#505050"/>
<path fill-rule="evenodd" clip-rule="evenodd" d="M15.7721 8.39943C15.2849 8.77834 15 9.36096 15 9.97814V20C15 20.5304 15.2107 21.0391 15.5858 21.4142C15.9609 21.7893 16.4696 22 17 22H21V17C21 15.8954 21.8954 15 23 15H25C26.1046 15 27 15.8954 27 17V22H31C31.5304 22 32.0391 21.7893 32.4142 21.4142C32.7893 21.0391 33 20.5304 33 20V9.97814C33 9.36096 32.7151 8.77835 32.2279 8.39943L25.2279 2.95499C24.5057 2.39326 23.4943 2.39326 22.7721 2.95499L15.7721 8.39943Z" fill="#505050"/>
<path d="M15.7721 8.39943L15.1582 7.61008H15.1582L15.7721 8.39943ZM15.5858 21.4142L14.8787 22.1213L14.8787 22.1213L15.5858 21.4142ZM21 22V23C21.5523 23 22 22.5523 22 22H21ZM27 22H26C26 22.5523 26.4477 23 27 23V22ZM32.4142 21.4142L33.1213 22.1213L33.1213 22.1213L32.4142 21.4142ZM32.2279 8.39943L32.8418 7.61008V7.61008L32.2279 8.39943ZM25.2279 2.95499L25.8418 2.16564V2.16564L25.2279 2.95499ZM22.7721 2.95499L23.3861 3.74434L22.7721 2.95499ZM15 9.97814H16C16 9.66955 16.1425 9.37824 16.3861 9.18878L15.7721 8.39943L15.1582 7.61008C14.4274 8.17845 14 9.05237 14 9.97814H15ZM15 20H16V9.97814H15H14V20H15ZM15.5858 21.4142L16.2929 20.7071C16.1054 20.5195 16 20.2652 16 20H15H14C14 20.7956 14.3161 21.5587 14.8787 22.1213L15.5858 21.4142ZM17 22V21C16.7348 21 16.4804 20.8946 16.2929 20.7071L15.5858 21.4142L14.8787 22.1213C15.4413 22.6839 16.2043 23 17 23V22ZM21 22V21H17V22V23H21V22ZM21 22H22V17H21H20V22H21ZM21 17H22C22 16.4477 22.4477 16 23 16V15V14C21.3431 14 20 15.3431 20 17H21ZM23 15V16H25V15V14H23V15ZM25 15V16C25.5523 16 26 16.4477 26 17H27H28C28 15.3431 26.6569 14 25 14V15ZM27 17H26V22H27H28V17H27ZM31 22V21H27V22V23H31V22ZM32.4142 21.4142L31.7071 20.7071C31.5196 20.8946 31.2652 21 31 21V22V23C31.7957 23 32.5587 22.6839 33.1213 22.1213L32.4142 21.4142ZM33 20H32C32 20.2652 31.8946 20.5195 31.7071 20.7071L32.4142 21.4142L33.1213 22.1213C33.6839 21.5587 34 20.7956 34 20H33ZM33 9.97814H32V20H33H34V9.97814H33ZM32.2279 8.39943L31.6139 9.18878C31.8575 9.37824 32 9.66955 32 9.97814H33H34C34 9.05237 33.5726 8.17845 32.8418 7.61008L32.2279 8.39943ZM25.2279 2.95499L24.6139 3.74434L31.6139 9.18879L32.2279 8.39943L32.8418 7.61008L25.8418 2.16564L25.2279 2.95499ZM22.7721 2.95499L23.3861 3.74434C23.7472 3.46348 24.2528 3.46348 24.6139 3.74434L25.2279 2.95499L25.8418 2.16564C24.7585 1.32305 23.2415 1.32304 22.1582 2.16563L22.7721 2.95499ZM15.7721 8.39943L16.3861 9.18878L23.3861 3.74434L22.7721 2.95499L22.1582 2.16563L15.1582 7.61008L15.7721 8.39943Z" fill="#505050"/>
</svg>
