<svg width="49" height="40" viewBox="0 0 49 40" fill="none" xmlns="http://www.w3.org/2000/svg">
<path d="M23.2461 28.4961V38.9961H22.1211V28.4961H23.2461ZM20.1172 29.6211C20.1172 32.6914 18.8047 35.3633 15.207 37.0859L14.6211 36.1836C17.416 34.8535 18.7754 32.9609 18.9922 30.5117H15.125V29.6211H20.1172ZM34.4844 34.2266V35.1289H24.875V34.2266H29.1289V33.2305H26.1055V30.5586H32.1641V29.6211H26.082V28.7422H33.2773V31.3789H27.207V32.3633H33.4883V33.2305H30.2305V34.2266H34.4844ZM33.3359 35.8672V38.9141H32.2109V36.7578H25.9531V35.8672H33.3359Z" fill="#ABABAB"/>
<path d="M30.2555 3.45617C30.6251 3.08655 31.1264 2.87891 31.6491 2.87891C32.1718 2.87891 32.6731 3.08655 33.0427 3.45617C33.4124 3.82579 33.62 4.32709 33.62 4.84981C33.62 5.37252 33.4124 5.87383 33.0427 6.24344L24.2164 15.0698L20.5 15.9989L21.4291 12.2825L30.2555 3.45617Z" fill="#ABABAB" stroke="#ABABAB" stroke-width="2" stroke-linecap="round" stroke-linejoin="round"/>
<rect x="14.5" y="18" width="21" height="3" rx="1.5" fill="#ABABAB"/>
</svg>
