<svg width="49" height="40" viewBox="0 0 49 40" fill="none" xmlns="http://www.w3.org/2000/svg">
<path d="M18.6543 33.5938V34.4844H14.4121V35.6094H17.4824V38.9961H16.3574V36.5117H10.1465V35.6094H13.3105V34.4844H9.08008V33.5938H18.6543ZM11.4355 28.7422V29.8789H16.2988V28.7422H17.4121V32.7148H10.334V28.7422H11.4355ZM11.4355 31.8242H16.2988V30.7109H11.4355V31.8242ZM27.8418 28.9648V29.7969C27.8418 30.6113 27.8418 31.5312 27.6074 32.7148H29.0137V33.6172H19.4629V32.7148H26.4941C26.582 32.2812 26.6406 31.8887 26.6816 31.5195L20.5293 31.7773L20.3887 30.9102L26.7285 30.7344C26.7402 30.4238 26.7402 30.1367 26.7402 29.8555H20.6582V28.9648H27.8418ZM27.9121 34.4961V37.0391H21.6895V37.9883H28.2871V38.8672H20.5762V36.207H26.8105V35.3516H20.5527V34.4961H27.9121ZM38.5762 28.5078V34.2852H37.4629V31.543H35.5645V30.6289H37.4629V28.5078H38.5762ZM32.752 34.7539V35.9258H37.4746V34.7539H38.5762V38.8672H31.6387V34.7539H32.752ZM32.752 37.9648H37.4746V36.8047H32.752V37.9648ZM34.9434 28.918V31.8594H31.3574V33.125C33.0391 33.1191 34.2871 33.0664 35.7754 32.832L35.8691 33.7344C34.2754 33.9922 32.9277 34.0391 31.0762 34.0391H30.2559V31.0156H33.8652V29.8203H30.2441V28.918H34.9434Z" fill="#ABABAB"/>
<path fill-rule="evenodd" clip-rule="evenodd" d="M24.75 22C33.5669 22 35.75 18.1385 35.75 13.375C35.75 8.61154 33.9461 1 24.7499 1C15.5538 1 13.75 8.61154 13.75 13.375C13.75 18.1385 15.9331 22 24.75 22ZM25.9542 15.3744C25.1688 15.1307 24.3274 15.1351 23.5445 15.3868L21.4996 16.0443C20.7395 16.2887 20.9155 17.4107 21.7138 17.4107H27.8992C28.7017 17.4107 28.8731 16.28 28.1066 16.0422L25.9542 15.3744ZM21.75 13C21.75 13.5523 21.3023 14 20.75 14C20.1977 14 19.75 13.5523 19.75 13C19.75 12.4477 20.1977 12 20.75 12C21.3023 12 21.75 12.4477 21.75 13ZM28.75 14C29.3023 14 29.75 13.5523 29.75 13C29.75 12.4477 29.3023 12 28.75 12C28.1977 12 27.75 12.4477 27.75 13C27.75 13.5523 28.1977 14 28.75 14Z" fill="#ABABAB"/>
</svg>
