<svg width="69" height="101" viewBox="0 0 69 101" fill="none" xmlns="http://www.w3.org/2000/svg">
<path d="M56.7496 74.0667C60.4887 84.0234 67.3282 101 34.2266 101C1.12492 101 8.62143 84.2128 11.7035 74.0667C15.9646 60.0389 16.5733 54.9889 34.2266 54.9889C51.8798 54.9889 51.2711 59.4778 56.7496 74.0667Z" fill="#FFFAE6"/>
<path d="M67.4963 34.7889C74.8602 53.8666 53.7705 59.4778 34.8213 59.4778C15.872 59.4778 -6.23894 53.8666 1.6356 34.7889C1.6356 18.5167 8.94766 0 34.8213 0C60.6949 0 66.3713 17.9555 67.4963 34.7889Z" fill="#FFFAE6"/>
<path d="M30.7007 42.9162C33.0233 42.0193 35.5979 42.0193 37.9206 42.9162L44.4068 45.4209C46.3408 46.1678 45.9976 48.9956 43.9408 49.2603L35.5903 50.3352C34.7407 50.4446 33.8805 50.4446 33.0309 50.3352L24.6805 49.2603C22.6237 48.9956 22.2804 46.1678 24.2144 45.4209L30.7007 42.9162Z" fill="#FFBF68"/>
<path d="M22.4715 37.9849C22.1689 40.1331 21.3739 41.484 19.1386 41.484C16.9032 41.484 16.5989 39.3522 16.9016 37.204C17.2042 35.0559 18.6964 33.4893 20.2345 33.7049C21.7726 33.9206 22.7741 35.8368 22.4715 37.9849Z" fill="#505050"/>
<path d="M20.8114 36.1917C20.8114 36.6566 20.4337 37.0334 19.9677 37.0334C19.5018 37.0334 19.124 36.6566 19.124 36.1917C19.124 35.7269 19.5018 35.3501 19.9677 35.3501C20.4337 35.3501 20.8114 35.7269 20.8114 36.1917Z" fill="#FFF0B9"/>
<path d="M50.5948 37.204C50.8975 39.3521 50.5932 41.484 48.3578 41.484C46.1224 41.484 45.3275 40.1331 45.0249 37.9849C44.7222 35.8368 45.7238 33.9206 47.2619 33.7049C48.8 33.4893 50.2922 35.0559 50.5948 37.204Z" fill="#505050"/>
<path d="M48.3723 36.1917C48.3723 36.6566 47.9946 37.0334 47.5286 37.0334C47.0626 37.0334 46.6849 36.6566 46.6849 36.1917C46.6849 35.7269 47.0626 35.3501 47.5286 35.3501C47.9946 35.3501 48.3723 35.7269 48.3723 36.1917Z" fill="#FFF0B9"/>
<path d="M8.43706 60.6638C8.43706 60.0445 8.99679 59.5749 9.6084 59.681L33.482 63.8229C33.961 63.906 34.3106 64.3207 34.3106 64.8057V95.325C34.3106 95.9443 33.7509 96.414 33.1393 96.3079L9.26572 92.166C8.78673 92.0829 8.43706 91.6681 8.43706 91.1831V60.6638Z" fill="#FFF0B9"/>
<path d="M9.56201 59.5416C9.56201 58.9223 10.1217 58.4527 10.7333 58.5588L34.6069 62.7007C35.0859 62.7838 35.4356 63.1985 35.4356 63.6835V94.2028C35.4356 94.8221 34.8758 95.2918 34.2642 95.1856L10.3907 91.0437C9.91168 90.9606 9.56201 90.5459 9.56201 90.0609V59.5416Z" fill="#FFF0B9"/>
<path d="M61.3092 60.6638C61.3092 60.0445 60.7494 59.5749 60.1378 59.681L36.2643 63.8229C35.7853 63.906 35.4356 64.3207 35.4356 64.8057V95.325C35.4356 95.9443 35.9953 96.414 36.6069 96.3079L60.4805 92.166C60.9595 92.0829 61.3092 91.6681 61.3092 91.1831V60.6638Z" fill="#FFF0B9"/>
<path d="M60.1842 59.5416C60.1842 58.9223 59.6245 58.4527 59.0129 58.5588L35.1393 62.7007C34.6603 62.7838 34.3106 63.1985 34.3106 63.6835V94.2028C34.3106 94.8221 34.8704 95.2918 35.482 95.1856L59.3556 91.0437C59.8345 90.9606 60.1842 90.5459 60.1842 90.0609V59.5416Z" fill="#FFF0B9"/>
<path d="M6.22293 61.8626C6.20469 61.2184 6.79431 60.7263 7.42668 60.8579L31.2649 65.8173C31.7285 65.9137 32.0607 66.3214 32.0607 66.7938V97.2472C32.0607 97.897 31.4481 98.3733 30.8165 98.2146L7.81724 92.4349C7.3831 92.3258 7.07455 91.9422 7.06191 91.4957L6.22293 61.8626Z" fill="#636363"/>
<path d="M63.5233 61.8626C63.5415 61.2184 62.9519 60.7263 62.3195 60.8579L38.4813 65.8173C38.0177 65.9137 37.6855 66.3214 37.6855 66.7938V97.2472C37.6855 97.897 38.2982 98.3733 38.9298 98.2146L61.929 92.4349C62.3631 92.3258 62.6717 91.9422 62.6843 91.4957L63.5233 61.8626Z" fill="#636363"/>
<path d="M59.6217 67.8362C59.6217 67.2169 59.062 66.7473 58.4504 66.8534L43.5763 69.434C43.0973 69.5171 42.7477 69.9318 42.7477 70.4168V75.247C42.7477 75.8663 43.3074 76.3359 43.919 76.2298L58.7931 73.6492C59.2721 73.5661 59.6217 73.1514 59.6217 72.6664V67.8362Z" fill="#505050"/>
<path d="M30.9358 66.7352C30.9358 66.2898 31.2318 65.8984 31.6611 65.776L32.1259 65.6435C33.9214 65.1318 35.8248 65.1318 37.6203 65.6435L38.0851 65.776C38.5144 65.8984 38.8104 66.2898 38.8104 66.7352V97.7747C38.8104 98.2201 38.5144 98.6115 38.0851 98.7339L37.6203 98.8664C35.8248 99.3781 33.9214 99.3781 32.1259 98.8664L31.6611 98.7339C31.2318 98.6115 30.9358 98.2201 30.9358 97.7747V66.7352Z" fill="#6C6C6C"/>
<path d="M14.0617 76.4319C14.0617 73.3997 11.2494 71.6279 8.43705 70.9417C5.39094 70.1983 2.81236 70.9417 2.81236 76.4319C2.81236 81.9222 5.33062 81.9222 8.43705 81.9222C11.5435 81.9222 14.0617 79.4642 14.0617 76.4319Z" fill="#FFFAE6"/>
<path d="M56.8093 75.3097C56.8093 72.2775 59.6217 70.5057 62.434 69.8194C65.4801 69.0761 68.0587 69.8194 68.0587 75.3097C68.0587 80.8 65.5405 80.8 62.434 80.8C59.3276 80.8 56.8093 78.3419 56.8093 75.3097Z" fill="#FFFAE6"/>
</svg>
